# This file uses centimeters as units for non-parametric coordinates.

g default
v -2.000000 -1.500000 82.000000
v 82.000000 -1.500000 82.000000
v -1.929493 -0.094531 81.929497
v 81.929497 -0.094531 81.929497
v 0.000000 0.000000 80.000000
v 80.000000 0.000000 80.000000
v -1.929493 -0.094531 -1.929493
v 0.000000 0.000000 0.000000
v 80.000000 0.000000 0.000000
v 81.929497 -0.094531 -1.929493
v -2.000000 -1.500000 -2.000000
v 82.000000 -1.500000 -2.000000
v -2.000000 -0.251134 82.000000
v -2.000000 -0.251134 -2.000000
v 82.000000 -0.251134 -2.000000
v 82.000000 -0.251134 82.000000
v 81.798981 0.000000 81.798981
v 81.798981 0.000000 -1.798988
v -1.798988 0.000000 -1.798988
v -1.798988 0.000000 81.798981
vt 1.000000 -0.000000
vt 0.000000 -0.000000
vt 0.000000 -0.000000
vt 1.000000 -0.000000
vt 0.002393 0.002393
vt 0.997607 0.002393
vt 0.976191 0.023809
vt 0.023810 0.023809
vt 0.023810 0.976190
vt 0.002393 0.997607
vt 0.976191 0.976190
vt 0.997607 0.997607
vt 0.000000 1.000000
vt 0.000000 1.000000
vt 1.000000 1.000000
vt 1.000000 1.000000
vt 0.000839 0.000839
vt 0.000839 0.999161
vt 0.999161 0.999161
vt 0.999161 0.000839
vn 0.000000 0.038737 0.999250
vn 0.000000 0.038736 0.999250
vn 0.000000 0.000000 1.000000
vn 0.000000 0.000000 1.000000
vn -0.063310 0.995984 0.063308
vn 0.063308 0.995984 0.063308
vn 0.000000 1.000000 -0.000000
vn 0.000000 1.000000 -0.000000
vn 0.000000 1.000000 0.000000
vn -0.063309 0.995984 -0.063309
vn 0.000000 1.000000 0.000000
vn 0.063307 0.995984 -0.063309
vn 0.000000 0.000000 -1.000000
vn 0.000000 0.038738 -0.999250
vn 0.000000 0.038739 -0.999249
vn 0.000000 0.000000 -1.000000
vn 0.000000 -1.000000 0.000000
vn 0.000000 -1.000000 0.000000
vn 0.000000 -1.000000 0.000000
vn 0.000000 -1.000000 0.000000
vn 0.999250 0.038735 -0.000000
vn 1.000000 0.000000 0.000000
vn 1.000000 0.000000 0.000000
vn 0.999250 0.038734 -0.000000
vn -0.999249 0.038738 -0.000000
vn -0.999250 0.038738 -0.000000
vn -1.000000 0.000000 0.000000
vn -1.000000 0.000000 0.000000
vn -0.911845 0.410534 -0.000000
vn -0.911845 0.410534 -0.000000
vn 0.000000 0.410534 -0.911845
vn 0.000000 0.410534 -0.911845
vn 0.911860 0.410500 -0.000000
vn 0.911860 0.410501 -0.000000
vn 0.000000 0.410518 0.911852
vn 0.000000 0.410518 0.911852
vn 0.322323 0.890064 0.322325
vn 0.322346 0.890056 -0.322324
vn -0.322349 0.890046 -0.322349
vn -0.322326 0.890054 0.322351
s 1
g board
f 16/1/1 13/2/2 1/3/3 2/4/4
s 2
f 20/5/5 17/6/6 6/7/7 5/8/8
f 20/5/5 5/8/8 8/9/9 19/10/10
f 5/8/8 6/7/7 9/11/11 8/9/9
f 6/7/7 17/6/6 18/12/12 9/11/11
f 8/9/9 9/11/11 18/12/12 19/10/10
s 3
f 11/13/13 14/14/14 15/15/15 12/16/16
s off
f 1/3/17 11/13/18 12/16/19 2/4/20
s 4
f 16/1/21 2/4/22 12/16/23 15/15/24
s 5
f 13/2/25 14/14/26 11/13/27 1/3/28
f 3/17/29 7/18/30 14/14/26 13/2/25
s 3
f 15/15/15 14/14/14 7/18/31 10/19/32
s 4
f 4/20/33 16/1/21 15/15/24 10/19/34
s 1
f 3/17/35 13/2/2 16/1/1 4/20/36
s 2
f 17/6/6 4/20/37 10/19/38 18/12/12
f 19/10/10 18/12/12 10/19/38 7/18/39
f 3/17/40 20/5/5 19/10/10 7/18/39
f 3/17/40 4/20/37 17/6/6 20/5/5
